<?xml version="1.0" standalone="no"?>
<!DOCTYPE svg PUBLIC "-//W3C//DTD SVG 20010904//EN"
 "http://www.w3.org/TR/2001/REC-SVG-20010904/DTD/svg10.dtd">
<svg version="1.0" xmlns="http://www.w3.org/2000/svg"
 width="1024.000000pt" height="1024.000000pt" viewBox="0 0 1024.000000 1024.000000"
 preserveAspectRatio="xMidYMid meet">

<g transform="translate(0.000000,1024.000000) scale(0.100000,-0.100000)"
fill="#000000" stroke="none">
<path d="M6428 7793 c40 -2 70 -8 67 -13 -3 -5 -1 -12 5 -15 6 -4 10 -3 9 2
-3 19 2 23 19 15 9 -5 31 -12 47 -16 l30 -7 -30 21 c-26 17 -44 20 -125 18
-89 -2 -91 -2 -22 -5z"/>
<path d="M5956 7769 c-14 -11 -26 -25 -26 -31 0 -6 9 0 19 13 16 20 31 25 98
30 l78 6 -71 1 c-59 2 -76 -2 -98 -19z"/>
<path d="M4248 7773 c6 -2 18 -2 25 0 6 3 1 5 -13 5 -14 0 -19 -2 -12 -5z"/>
<path d="M5936 7695 c7 -33 23 -61 172 -290 171 -263 201 -295 275 -295 48 0
70 27 66 83 l-4 44 50 -30 c28 -16 64 -39 80 -50 42 -30 198 -178 252 -240 25
-29 58 -66 74 -84 15 -17 73 -93 128 -167 178 -244 314 -506 396 -770 42 -134
89 -364 105 -516 6 -58 12 -105 13 -106 31 -14 81 -52 112 -83 21 -23 44 -41
51 -41 6 0 37 27 69 60 52 56 57 64 50 93 -3 18 -10 75 -15 128 -4 53 -12 105
-18 115 -6 11 -18 60 -27 110 -17 93 -36 157 -43 149 -7 -7 -28 36 -35 73 -4
19 -2 32 4 32 6 0 5 9 -3 23 -6 12 -12 29 -13 37 -1 8 -2 25 -3 38 -1 12 -10
25 -19 29 -22 8 -53 33 -53 44 0 5 8 6 18 3 13 -4 14 -3 4 4 -8 5 -16 31 -19
57 -6 65 -38 135 -60 135 -15 0 -16 2 -3 10 13 8 12 10 -3 10 -10 0 -16 4 -13
9 3 4 -4 36 -15 69 -15 44 -24 59 -35 55 -12 -5 -20 19 -15 49 0 4 -7 4 -15 1
-11 -4 -23 2 -34 17 -19 25 -57 22 -47 -4 4 -9 -4 -16 -24 -20 -20 -4 -29 -11
-29 -25 0 -10 -7 -24 -15 -31 -13 -11 -15 -8 -15 14 0 18 -5 26 -18 26 -27 0
-90 84 -72 95 6 3 10 0 10 -7 1 -17 28 -53 35 -46 7 7 -47 97 -59 98 -5 0 -3
-7 4 -15 7 -9 10 -18 6 -22 -7 -8 1 -20 -89 118 -42 64 -109 153 -148 199 -40
46 -67 80 -61 76 6 -3 13 -2 16 3 4 5 -4 11 -17 13 -26 3 -247 203 -247 223 0
14 -52 65 -67 65 -7 0 -15 5 -19 12 -5 7 -3 8 6 3 8 -5 11 -3 8 6 -3 9 -22 14
-55 15 -57 1 -98 24 -135 77 -12 18 -35 45 -50 60 -15 16 -28 35 -28 42 0 8
-13 29 -28 47 -16 18 -34 49 -42 68 -19 50 -36 67 -102 100 -55 28 -116 39
-132 23 -11 -11 -51 -11 -59 1 -4 6 -5 -2 -1 -19z m1511 -1257 c-3 -8 -6 -5
-6 6 -1 11 2 17 5 13 3 -3 4 -12 1 -19z"/>
<path d="M4361 7694 c0 -11 3 -14 6 -6 3 7 2 16 -1 19 -3 4 -6 -2 -5 -13z"/>
<path d="M4399 7403 c-13 -16 -12 -17 4 -4 16 13 21 21 13 21 -2 0 -10 -8 -17
-17z"/>
<path d="M3494 7388 l-19 -23 23 19 c21 18 27 26 19 26 -2 0 -12 -10 -23 -22z"/>
<path d="M4289 7317 c-133 -114 -257 -288 -318 -446 -16 -42 -41 -130 -57
-196 l-27 -120 -4 -630 c-2 -417 1 -640 7 -661 23 -68 10 -66 402 -63 194 1
444 1 556 -1 193 -2 202 -1 202 17 0 46 -91 183 -122 183 -5 0 -52 20 -106 44
-53 24 -143 65 -200 90 -273 122 -451 276 -498 432 l-14 46 73 -68 c128 -122
386 -278 553 -334 48 -17 89 -30 91 -30 11 0 -3 29 -46 92 -45 68 -83 135
-180 318 -38 72 -41 75 -93 91 -75 22 -153 64 -201 108 -50 44 -101 81 -137
98 l-25 11 25 0 c34 0 70 -14 181 -75 83 -45 169 -76 169 -60 0 3 -29 65 -64
139 -102 209 -139 304 -193 483 -8 29 60 -72 92 -136 75 -148 316 -558 353
-602 15 -16 16 -16 28 13 18 41 64 307 61 347 -1 18 -6 33 -10 33 -4 0 -2 10
5 23 6 12 13 27 14 32 1 6 5 18 9 28 4 10 3 17 -4 17 -6 0 -11 9 -11 20 0 15
-7 20 -24 20 -14 0 -28 5 -31 10 -3 6 -14 10 -24 10 -9 0 -27 11 -39 25 -12
14 -26 25 -32 25 -5 0 -9 10 -7 23 1 12 -3 21 -9 20 -6 -1 -14 16 -18 37 -3
22 -11 40 -16 40 -6 0 -10 -4 -10 -10 0 -5 -4 -10 -10 -10 -5 0 -10 9 -10 21
0 15 -6 20 -22 19 -41 -4 -48 0 -48 25 0 18 -5 25 -20 25 -16 0 -20 7 -20 30
0 26 -4 30 -26 30 -26 0 -54 20 -54 39 0 13 -23 17 -50 8 -3 -1 -5 1 -5 4 0
13 -38 49 -45 44 -14 -9 -40 7 -40 24 0 9 6 23 13 30 10 11 10 14 0 18 -8 3
-13 22 -13 44 0 33 -4 41 -25 49 -22 8 -24 13 -15 30 6 11 15 18 20 15 6 -3 7
1 4 9 -3 9 22 42 70 90 42 42 75 76 73 76 -2 0 -37 -28 -78 -63z m-111 -329
c-6 -13 -13 -36 -15 -53 -4 -48 -31 -153 -32 -124 -2 61 35 199 55 199 2 0 -1
-10 -8 -22z m15 -155 c-7 -2 -19 -2 -25 0 -7 3 -2 5 12 5 14 0 19 -2 13 -5z
m457 -203 c0 -5 -7 -10 -16 -10 -8 0 -12 5 -9 10 3 6 10 10 16 10 5 0 9 -4 9
-10z m-568 -335 c3 -80 1 -121 -3 -95 -8 45 -12 247 -5 239 2 -2 5 -67 8 -144z"/>
<path d="M3873 7296 c-88 -58 -188 -133 -238 -178 -16 -14 -41 -36 -55 -48
-44 -37 -227 -220 -224 -223 2 -2 -21 -30 -51 -63 -30 -32 -68 -78 -83 -101
-25 -40 -42 -54 -42 -35 0 5 -13 7 -30 4 -29 -4 -30 -3 -30 32 0 35 -1 36 -40
36 -33 0 -40 3 -40 20 0 11 -4 20 -10 20 -5 0 -10 14 -10 31 0 25 -3 29 -19
24 -35 -11 -30 10 22 86 73 107 102 142 187 234 65 71 63 69 -20 -15 -95 -95
-271 -320 -325 -415 -16 -27 -51 -84 -78 -125 -56 -86 -170 -316 -216 -439
-78 -205 -146 -525 -158 -743 l-6 -117 32 -18 c18 -10 55 -35 81 -55 26 -21
52 -38 57 -38 5 0 30 22 57 49 l48 49 14 133 c33 307 42 359 84 491 37 119
134 334 193 429 47 76 69 109 73 109 6 0 -14 -38 -37 -71 -10 -14 -15 -30 -11
-34 4 -5 1 -5 -5 -1 -9 5 -13 0 -13 -13 0 -12 -4 -21 -9 -21 -5 0 -11 -14 -15
-31 -3 -17 -10 -28 -15 -25 -5 3 -7 -2 -5 -11 3 -10 -13 -54 -35 -97 -22 -44
-38 -84 -35 -88 3 -4 0 -8 -5 -8 -6 0 -10 -3 -9 -7 3 -11 -20 -78 -45 -133
-11 -25 -20 -63 -19 -85 1 -28 -2 -36 -8 -25 -7 11 -10 8 -10 -15 0 -16 -6
-77 -14 -135 -22 -158 -38 -331 -33 -336 2 -3 10 41 16 98 38 332 85 523 181
733 77 169 123 262 144 295 13 19 45 69 72 110 87 135 157 224 300 382 98 108
329 303 467 393 49 33 64 45 55 45 -2 0 -40 -25 -85 -54z m-703 -691 c-7 -9
-15 -13 -17 -11 -6 6 20 36 26 30 2 -2 -2 -10 -9 -19z m-26 -40 c-4 -8 -11
-15 -16 -15 -6 0 -5 6 2 15 7 8 14 15 16 15 2 0 1 -7 -2 -15z m-57 -80 c-7
-13 -14 -20 -15 -14 -5 14 6 39 17 39 5 0 4 -11 -2 -25z"/>
<path d="M5182 7210 c0 -19 2 -27 5 -17 2 9 2 25 0 35 -3 9 -5 1 -5 -18z"/>
<path d="M6980 7125 c19 -19 36 -35 39 -35 3 0 -10 16 -29 35 -19 19 -36 35
-39 35 -3 0 10 -16 29 -35z"/>
<path d="M5188 6320 c2 -448 5 -817 8 -820 10 -9 64 63 111 150 25 47 62 110
83 140 73 107 73 107 55 218 -29 178 -32 392 -6 392 12 0 20 -51 31 -187 5
-65 17 -145 27 -178 l19 -59 31 44 c48 71 155 278 149 289 -4 5 2 16 13 23 24
17 74 105 66 118 -3 5 3 15 15 22 11 7 20 17 20 22 0 5 -3 6 -7 3 -7 -8 -43
21 -43 36 0 5 7 3 16 -4 9 -7 22 -14 30 -15 16 -2 37 30 27 40 -3 3 -1 6 5 6
7 0 12 4 12 10 0 5 -7 7 -15 4 -8 -4 -26 1 -40 10 -13 9 -44 16 -68 16 -29 0
-51 7 -67 20 -12 11 -31 22 -41 25 -11 4 -19 12 -19 20 0 8 -9 17 -20 20 -11
3 -20 10 -20 15 0 5 -9 12 -20 15 -11 3 -20 13 -20 21 0 8 -13 17 -30 21 -16
3 -30 11 -30 17 0 6 -9 18 -20 26 -12 9 -18 21 -15 31 4 11 -4 25 -20 37 -14
11 -25 27 -25 36 0 9 -6 16 -12 16 -24 0 -58 47 -58 78 0 46 -31 77 -77 77
-34 0 -38 3 -43 30 -3 16 -4 -337 -2 -785z"/>
<path d="M5063 7020 c0 -25 2 -35 4 -22 2 12 2 32 0 45 -2 12 -4 2 -4 -23z"/>
<path d="M5062 6770 c-4 -277 -19 -524 -32 -528 -7 -3 -7 -9 2 -20 11 -12 11
-16 -1 -20 -11 -4 -11 -6 0 -13 12 -8 11 -11 -1 -19 -8 -5 -10 -10 -4 -10 15
0 24 -58 15 -100 l-7 -34 -39 48 c-39 49 -98 86 -135 86 -11 0 -20 7 -20 16 0
9 -5 12 -12 8 -8 -5 -9 -2 -5 9 3 10 3 25 0 34 -4 9 -15 -41 -25 -112 -11 -71
-24 -132 -30 -136 -16 -10 48 -122 156 -276 124 -177 134 -189 140 -182 3 3 5
329 3 725 -1 395 -3 631 -5 524z"/>
<path d="M3187 6711 c-13 -62 -3 -70 26 -20 14 25 14 30 3 26 -9 -4 -16 1 -18
11 -2 10 -7 3 -11 -17z"/>
<path d="M7360 6644 c0 -6 7 -19 16 -30 14 -18 14 -18 3 6 -14 31 -19 36 -19
24z"/>
<path d="M7271 6602 c-42 -3 -43 -4 -37 -34 3 -17 6 -34 6 -39 0 -5 9 -9 20
-9 13 0 20 7 20 20 0 13 7 20 19 20 10 0 21 9 24 20 6 25 3 26 -52 22z"/>
<path d="M5881 6482 c-13 -31 -52 -112 -85 -179 -33 -67 -58 -124 -55 -127 8
-9 87 13 151 42 63 29 118 46 118 38 0 -22 -27 -54 -58 -68 -20 -9 -68 -31
-107 -49 -38 -18 -90 -40 -115 -50 -42 -16 -48 -23 -95 -115 -77 -151 -145
-274 -182 -328 -35 -51 -41 -68 -20 -61 121 38 172 58 277 110 128 65 264 154
312 206 15 16 33 29 38 29 6 0 8 5 5 10 -3 6 1 10 9 10 8 0 24 12 35 27 12 14
24 24 27 21 10 -11 -36 -120 -71 -168 -79 -108 -300 -258 -480 -325 -33 -13
-78 -30 -100 -39 -22 -8 -66 -22 -97 -31 -32 -8 -66 -25 -77 -36 -33 -35 -91
-136 -97 -168 l-6 -31 541 0 c573 0 574 0 612 46 13 16 12 17 -4 8 -12 -7 -38
-7 -76 -1 l-58 9 -1 217 c-2 226 -20 472 -34 482 -9 6 -20 78 -21 132 0 17 -5
27 -14 27 -9 0 -13 8 -12 23 8 57 -51 117 -101 104 -11 -3 -20 -1 -20 3 0 5
17 12 38 15 61 11 71 15 77 35 3 11 1 28 -4 39 -6 11 -11 38 -11 60 0 37 -3
41 -32 50 -18 5 -27 10 -20 10 7 1 -6 19 -28 41 -36 35 -46 40 -88 40 l-47 0
-24 -58z m159 3 c0 -8 -4 -15 -10 -15 -5 0 -10 7 -10 15 0 8 5 15 10 15 6 0
10 -7 10 -15z"/>
<path d="M6374 5860 c0 -102 2 -143 3 -92 2 50 2 134 0 185 -1 50 -3 9 -3 -93z"/>
<path d="M6373 5390 c0 -30 2 -43 4 -27 2 15 2 39 0 55 -2 15 -4 2 -4 -28z"/>
<path d="M6926 5303 c-45 -46 -54 -77 -33 -112 19 -32 12 -45 -27 -58 -63 -20
-58 -51 25 -179 50 -76 84 -98 118 -77 9 5 37 38 64 74 26 35 63 83 82 106 19
23 35 46 35 52 0 10 -111 141 -168 198 -18 18 -39 33 -47 33 -7 0 -29 -17 -49
-37z"/>
<path d="M3265 5280 c-54 -12 -92 -38 -104 -71 -16 -45 -14 -153 4 -194 18
-45 52 -58 138 -52 78 5 106 24 110 73 l2 29 -95 5 -95 5 1 48 c1 69 8 73 109
55 47 -8 85 -11 85 -6 0 16 -27 63 -48 81 -26 24 -70 35 -107 27z m-65 -124
c0 -2 -9 -6 -20 -9 -11 -3 -20 -1 -20 4 0 5 9 9 20 9 11 0 20 -2 20 -4z"/>
<path d="M2650 5081 c-7 -18 -26 -39 -42 -47 -27 -14 -33 -14 -71 6 l-42 20
-44 -46 -44 -46 6 -121 c15 -278 117 -629 274 -940 78 -155 252 -417 361 -547
98 -116 299 -314 407 -400 234 -185 609 -389 774 -420 82 -15 143 28 121 86
-22 56 -328 336 -475 434 -182 121 -441 353 -566 507 -114 141 -260 366 -339
524 -112 221 -172 425 -216 729 -25 175 -38 223 -76 274 -14 17 -15 17 -28
-13z"/>
<path d="M7745 5054 c-35 -28 -71 -31 -96 -8 -17 16 -21 15 -54 -10 -56 -43
-65 -66 -87 -213 -51 -350 -158 -644 -354 -966 -134 -221 -258 -373 -460 -567
-116 -111 -199 -175 -325 -250 -70 -42 -124 -86 -224 -185 -174 -172 -235
-241 -235 -265 0 -12 13 -29 33 -41 45 -28 102 -20 224 32 376 160 671 368
925 653 129 144 280 340 319 411 12 22 32 54 45 71 47 64 206 390 253 522 58
163 92 295 126 496 34 203 34 210 -18 283 l-43 61 -29 -24z"/>
<path d="M5097 5020 l-1178 -5 -19 -25 c-19 -24 -20 -49 -20 -626 0 -666 1
-686 64 -877 63 -192 140 -312 305 -478 184 -183 350 -274 626 -340 115 -28
358 -30 476 -5 194 42 399 130 515 222 106 84 232 212 283 288 130 194 196
345 220 507 15 95 17 202 14 796 l-3 481 -25 30 c-14 16 -37 31 -52 33 -16 2
-558 2 -1206 -1z m253 -350 c5 -8 10 -115 10 -237 l0 -223 223 0 c160 0 226
-3 235 -12 15 -15 17 -415 2 -438 -8 -13 -45 -15 -236 -15 l-227 0 2 -223 c2
-160 -1 -227 -10 -238 -9 -11 -51 -14 -220 -14 -123 0 -210 4 -214 10 -3 5 -7
109 -9 231 -2 177 -5 223 -17 230 -8 5 -109 9 -225 9 -150 0 -213 3 -222 12
-9 9 -12 71 -12 220 0 195 1 208 19 218 12 6 106 10 235 10 l216 0 0 224 c0
173 3 228 13 238 21 20 424 19 437 -2z"/>
</g>
</svg>
